<svg width="14" height="24" viewBox="0 0 14 24" fill="none" xmlns="http://www.w3.org/2000/svg">
<path d="M12.544 17.2219L12.7084 17.0396L12.5291 16.8719L10.8841 15.3338L10.6832 15.1459L10.5153 15.3638L8.41667 18.0877V5.9123L10.5153 8.63622L10.6832 8.85411L10.8841 8.66624L12.5291 7.12806L12.7084 6.96042L12.544 6.77809L7.18571 0.832631L7 0.626574L6.81429 0.832631L1.45596 6.77809L1.29163 6.96042L1.47092 7.12806L3.11592 8.66624L3.31683 8.85411L3.48471 8.63622L5.58333 5.9123V18.0877L3.48471 15.3638L3.31683 15.1459L3.11592 15.3338L1.47092 16.8719L1.29163 17.0396L1.45596 17.2219L6.81429 23.1674L7 23.3734L7.18571 23.1674L12.544 17.2219Z" fill="white" stroke="black" stroke-width="0.5"/>
</svg>
